<?xml version="1.0" standalone="no"?>
<!DOCTYPE svg PUBLIC "-//W3C//DTD SVG 20010904//EN"
 "http://www.w3.org/TR/2001/REC-SVG-20010904/DTD/svg10.dtd">
<svg version="1.0" xmlns="http://www.w3.org/2000/svg"
 width="300.000000pt" height="299.000000pt" viewBox="0 0 300.000000 299.000000"
 preserveAspectRatio="xMidYMid meet">
<metadata>
Created by potrace 1.10, written by Peter Selinger 2001-2011
</metadata>
<g transform="translate(0.000000,299.000000) scale(0.050000,-0.050000)"
fill="#000000" stroke="none">
<path d="M0 2990 l0 -2990 3000 0 3000 0 0 2990 0 2990 -3000 0 -3000 0 0
-2990z m2459 2199 c49 -8 112 -30 140 -49 28 -20 103 -68 166 -107 l114 -72
156 38 c85 21 199 41 253 45 l97 6 27 -92 c36 -121 73 -153 137 -118 61 32
220 16 268 -28 20 -17 50 -32 67 -32 18 0 78 -41 134 -92 104 -93 181 -122
748 -279 84 -24 121 -45 133 -77 9 -24 30 -54 46 -68 16 -13 45 -62 66 -109
20 -47 83 -135 140 -196 64 -68 110 -137 119 -180 8 -38 41 -112 74 -164 190
-300 246 -1397 84 -1649 -18 -28 -28 -99 -28 -195 0 -181 -51 -256 -219 -321
-58 -22 -114 -51 -125 -65 -12 -14 -36 -25 -53 -25 -70 0 -415 -126 -469 -172
-31 -26 -107 -62 -169 -80 -90 -26 -141 -60 -255 -168 -128 -121 -156 -138
-262 -159 -65 -13 -158 -32 -208 -43 -351 -80 -588 -86 -1120 -31 -205 21
-259 21 -300 -1 -71 -37 -161 -32 -209 11 -64 58 -245 116 -411 131 -272 24
-400 102 -493 302 -16 33 -53 101 -83 150 -34 54 -82 197 -123 360 -37 149
-85 315 -108 370 -38 94 -41 144 -45 785 l-4 685 69 60 c38 33 85 60 106 60
91 0 101 17 101 177 0 234 24 293 181 453 95 97 156 180 197 271 71 158 100
185 282 269 39 17 111 71 160 119 57 56 121 96 175 110 47 12 85 26 85 30 0 4
6 24 13 43 11 28 6 32 -23 21 -28 -11 -26 -3 12 35 27 26 76 52 109 57 60 10
91 7 248 -16z"/>
</g>
</svg>
