<?xml version="1.0" standalone="no"?>
<!DOCTYPE svg PUBLIC "-//W3C//DTD SVG 20010904//EN"
 "http://www.w3.org/TR/2001/REC-SVG-20010904/DTD/svg10.dtd">
<svg version="1.0" xmlns="http://www.w3.org/2000/svg"
 width="300.000000pt" height="299.000000pt" viewBox="0 0 300.000000 299.000000"
 preserveAspectRatio="xMidYMid meet">
<metadata>
Created by potrace 1.10, written by Peter Selinger 2001-2011
</metadata>
<g transform="translate(0.000000,299.000000) scale(0.100000,-0.100000)"
fill="#000000" stroke="none">
<path d="M1100 2602 c-14 -2 -33 -12 -43 -23 -10 -10 -22 -19 -26 -19 -5 0
-11 -7 -15 -15 -5 -13 -2 -13 19 1 22 14 25 14 25 1 0 -20 -19 -33 -61 -41
-23 -4 -49 -20 -75 -47 -21 -23 -57 -50 -79 -61 -89 -44 -121 -68 -131 -102
-19 -61 -49 -108 -113 -170 -81 -80 -97 -123 -89 -237 l5 -69 -37 -6 c-21 -4
-54 -19 -73 -35 l-35 -28 2 -338 c2 -319 3 -341 24 -398 11 -33 35 -116 52
-185 37 -145 33 -134 65 -185 13 -22 31 -53 38 -70 8 -16 33 -51 56 -77 47
-53 74 -63 186 -73 86 -8 187 -39 210 -65 21 -23 68 -26 106 -6 22 11 46 11
150 0 275 -30 377 -25 621 28 l107 24 68 66 c55 52 79 68 125 82 31 9 71 28
88 42 28 24 193 84 231 84 9 0 21 6 27 12 6 7 34 22 62 33 29 11 65 35 81 53
27 30 29 39 29 110 0 50 5 85 14 97 35 51 47 147 43 342 -7 275 -28 392 -85
479 -17 25 -33 62 -37 83 -5 28 -20 51 -56 87 -28 27 -59 70 -71 96 -11 26
-28 54 -39 64 -10 9 -19 23 -19 30 0 18 -9 22 -123 54 -243 67 -264 75 -318
124 -28 25 -58 46 -66 46 -8 0 -26 9 -39 19 -26 20 -119 28 -129 10 -4 -5 -15
-9 -25 -9 -17 0 -35 35 -56 108 -3 9 -13 12 -31 8 -16 -4 -43 -8 -61 -11 -49
-6 -93 -15 -129 -28 -28 -9 -37 -8 -62 11 -17 12 -33 22 -36 22 -3 0 -28 16
-55 35 -41 29 -63 36 -122 43 -40 4 -84 6 -98 4z m240 -107 c73 -43 101 -55
120 -50 32 8 172 34 186 34 6 1 17 -13 24 -29 7 -17 25 -41 41 -54 25 -21 35
-24 89 -19 71 7 123 -13 202 -79 33 -28 72 -46 140 -67 114 -35 194 -58 231
-67 33 -7 73 -53 99 -112 11 -24 41 -67 68 -97 26 -29 53 -70 60 -91 7 -22 25
-59 40 -84 56 -91 85 -292 78 -535 -3 -128 -7 -159 -27 -210 -14 -34 -27 -93
-30 -136 -4 -44 -12 -83 -21 -94 -19 -23 -140 -78 -243 -110 -45 -14 -107 -41
-137 -59 -30 -18 -78 -41 -105 -50 -33 -11 -69 -34 -103 -66 -74 -71 -87 -77
-197 -100 -253 -53 -302 -56 -585 -26 -107 11 -131 11 -168 -2 -42 -14 -44
-13 -116 22 -58 29 -95 39 -186 51 -109 14 -116 17 -150 50 -20 20 -46 53 -57
73 -68 123 -81 151 -88 187 -3 22 -23 94 -42 160 -20 66 -39 138 -44 160 -4
23 -7 177 -6 343 2 327 0 314 57 328 14 4 37 18 53 32 24 23 27 32 27 96 0
107 12 137 86 213 39 40 78 94 96 130 30 63 67 99 124 122 17 7 52 32 78 57
27 25 61 48 78 51 18 4 43 22 66 50 l37 45 65 -5 c57 -5 78 -13 160 -62z"/>
</g>
</svg>
